# Blender 3.5.1
# www.blender.org
mtllib Sägespähne .mtl
o Cube
v -0.137300 -0.001522 0.055605
v -0.115192 0.029663 0.022368
v -0.118157 0.021327 -0.014763
v -0.115192 0.026567 -0.003860
v -0.035776 0.020567 0.015547
v -0.029896 0.026346 0.010690
v -0.032725 0.016156 0.005171
v -0.032725 0.026969 0.007254
v -0.049992 0.015337 -0.009302
v -0.047180 0.030094 -0.011667
v -0.052691 0.004280 0.057584
v -0.041033 0.025418 0.023176
v -0.098045 0.021195 -0.017442
v -0.103024 0.026220 0.025801
v -0.104080 0.029248 -0.005340
v -0.111491 0.002067 0.056829
vn -0.8379 0.5431 -0.0550
vn 0.7193 -0.0867 -0.6893
vn 0.9429 -0.3171 0.1022
vn -0.0800 0.7738 0.6283
vn 0.4164 -0.9080 -0.0471
vn 0.0329 0.9995 -0.0018
vn 0.0538 0.9908 0.1245
vn -0.0158 -0.9774 -0.2108
vn 0.8571 0.1572 0.4906
vn 0.0348 0.3965 -0.9174
vn -0.1372 0.8497 -0.5092
vn 0.0640 -0.9622 -0.2648
vn 0.0083 0.9933 0.1151
vn -0.0008 0.8224 0.5690
vt 0.375000 0.000000
vt 0.375000 1.000000
vt 0.125000 0.750000
vt 0.625000 0.000000
vt 0.625000 1.000000
vt 0.875000 0.750000
vt 0.375000 0.250000
vt 0.125000 0.500000
vt 0.875000 0.500000
vt 0.625000 0.250000
vt 0.375000 0.750000
vt 0.625000 0.750000
vt 0.375000 0.500000
vt 0.625000 0.500000
vt 0.375000 0.500000
vt 0.625000 0.500000
vt 0.375000 0.750000
vt 0.625000 0.750000
vt 0.375000 0.250000
vt 0.125000 0.500000
vt 0.875000 0.750000
vt 0.625000 1.000000
vt 0.625000 0.250000
vt 0.875000 0.500000
vt 0.125000 0.750000
vt 0.375000 1.000000
s 0
f 1/1/1 2/4/1 4/10/1 3/7/1
f 9/15/2 10/16/2 8/14/2 7/13/2
f 7/13/3 8/14/3 6/12/3 5/11/3
f 16/26/4 14/22/4 2/5/4 1/2/4
f 9/15/5 7/13/5 5/11/5 11/17/5
f 15/24/6 4/9/6 2/6/6 14/21/6
f 8/14/7 10/16/7 12/18/7 6/12/7
f 13/20/8 9/15/8 11/17/8 16/25/8
f 5/11/9 6/12/9 12/18/9 11/17/9
f 13/19/10 15/23/10 10/16/10 9/15/10
f 3/7/11 4/10/11 15/23/11 13/19/11
f 3/8/12 13/20/12 16/25/12 1/3/12
f 10/16/13 15/24/13 14/21/13 12/18/13
f 11/17/14 12/18/14 14/22/14 16/26/14
o Cube.001
v 0.262517 0.011970 0.057660
v 0.262517 0.028022 0.057660
l 18 17
o Cube.002
v 0.031560 0.013707 0.119258
v 0.030086 0.028359 0.121617
v 0.035834 0.012452 0.070514
v 0.036563 0.019326 0.088891
v 0.169764 0.014072 0.101336
v 0.169764 0.019243 0.100110
v 0.168100 0.008256 0.096864
v 0.168100 0.019914 0.098089
v 0.159597 0.007215 0.083562
v 0.159597 0.023285 0.086959
v 0.166004 0.009646 0.116121
v 0.144465 0.022195 0.110208
v 0.034528 0.012296 0.069196
v 0.057027 0.029355 0.124078
v 0.042911 0.022133 0.088046
v 0.037172 0.009406 0.122340
vn -0.9843 0.1036 -0.1430
vn 0.8213 0.0938 -0.5627
vn 0.8899 -0.0000 -0.4562
vn -0.1704 -0.0261 0.9850
vn 0.4158 -0.9027 0.1104
vn -0.1003 0.9707 -0.2183
vn 0.1767 0.9709 0.1618
vn -0.0190 -0.9998 -0.0034
vn 0.4227 0.7301 0.5369
vn 0.0525 0.6408 -0.7659
vn -0.5298 0.8146 -0.2360
vn -0.7145 -0.6993 -0.0227
vn 0.0218 0.9945 -0.1025
vn 0.0959 0.1317 0.9866
vt 0.375000 0.000000
vt 0.375000 1.000000
vt 0.125000 0.750000
vt 0.625000 0.000000
vt 0.625000 1.000000
vt 0.875000 0.750000
vt 0.375000 0.250000
vt 0.125000 0.500000
vt 0.875000 0.500000
vt 0.625000 0.250000
vt 0.375000 0.750000
vt 0.625000 0.750000
vt 0.375000 0.500000
vt 0.625000 0.500000
vt 0.375000 0.500000
vt 0.625000 0.500000
vt 0.375000 0.750000
vt 0.625000 0.750000
vt 0.375000 0.250000
vt 0.125000 0.500000
vt 0.875000 0.750000
vt 0.625000 1.000000
vt 0.625000 0.250000
vt 0.875000 0.500000
vt 0.125000 0.750000
vt 0.375000 1.000000
s 0
f 19/27/15 20/30/15 22/36/15 21/33/15
f 27/41/16 28/42/16 26/40/16 25/39/16
f 25/39/17 26/40/17 24/38/17 23/37/17
f 34/52/18 32/48/18 20/31/18 19/28/18
f 27/41/19 25/39/19 23/37/19 29/43/19
f 33/50/20 22/35/20 20/32/20 32/47/20
f 26/40/21 28/42/21 30/44/21 24/38/21
f 31/46/22 27/41/22 29/43/22 34/51/22
f 23/37/23 24/38/23 30/44/23 29/43/23
f 31/45/24 33/49/24 28/42/24 27/41/24
f 21/33/25 22/36/25 33/49/25 31/45/25
f 21/34/26 31/46/26 34/51/26 19/29/26
f 28/42/27 33/50/27 32/47/27 30/44/27
f 29/43/28 30/44/28 32/48/28 34/52/28
o Cube.003
v -0.087488 -0.003735 0.197513
v -0.082336 0.039371 0.173575
v -0.087488 0.014113 0.115020
v -0.086395 0.030711 0.143593
v 0.064324 0.009352 0.158666
v 0.061645 0.031457 0.155159
v 0.062538 0.003111 0.153867
v 0.061481 0.030721 0.157374
v 0.035853 0.004422 0.112449
v 0.016438 0.034229 0.117516
v 0.051048 0.001746 0.206548
v 0.053588 0.033684 0.195324
v -0.052537 0.013692 0.110366
v -0.076043 0.035686 0.181342
v -0.034778 0.039626 0.115403
v -0.072647 0.001746 0.206548
vn -0.9940 0.1006 0.0441
vn 0.7137 0.3455 -0.6094
vn 0.7214 0.0542 -0.6904
vn -0.5795 0.4476 0.6810
vn 0.1570 -0.9876 0.0087
vn -0.1232 0.9877 -0.0964
vn 0.1069 0.9927 -0.0553
vn -0.0428 -0.9961 -0.0776
vn 0.9687 0.0676 0.2388
vn 0.0484 0.1795 -0.9826
vn -0.3197 0.6706 -0.6693
vn 0.1131 -0.9820 -0.1510
vn 0.0380 0.9988 0.0322
vn -0.0444 0.4830 0.8745
vt 0.375000 0.000000
vt 0.375000 1.000000
vt 0.125000 0.750000
vt 0.625000 0.000000
vt 0.625000 1.000000
vt 0.875000 0.750000
vt 0.375000 0.250000
vt 0.125000 0.500000
vt 0.875000 0.500000
vt 0.625000 0.250000
vt 0.375000 0.750000
vt 0.625000 0.750000
vt 0.375000 0.500000
vt 0.625000 0.500000
vt 0.375000 0.500000
vt 0.625000 0.500000
vt 0.375000 0.750000
vt 0.625000 0.750000
vt 0.375000 0.250000
vt 0.125000 0.500000
vt 0.875000 0.750000
vt 0.625000 1.000000
vt 0.625000 0.250000
vt 0.875000 0.500000
vt 0.125000 0.750000
vt 0.375000 1.000000
s 0
f 35/53/29 36/56/29 38/62/29 37/59/29
f 43/67/30 44/68/30 42/66/30 41/65/30
f 41/65/31 42/66/31 40/64/31 39/63/31
f 50/78/32 48/74/32 36/57/32 35/54/32
f 43/67/33 41/65/33 39/63/33 45/69/33
f 49/76/34 38/61/34 36/58/34 48/73/34
f 42/66/35 44/68/35 46/70/35 40/64/35
f 47/72/36 43/67/36 45/69/36 50/77/36
f 39/63/37 40/64/37 46/70/37 45/69/37
f 47/71/38 49/75/38 44/68/38 43/67/38
f 37/59/39 38/62/39 49/75/39 47/71/39
f 37/60/40 47/72/40 50/77/40 35/55/40
f 44/68/41 49/76/41 48/73/41 46/70/41
f 45/69/42 46/70/42 48/74/42 50/78/42
o Cube.004
v -0.018346 0.003053 0.273784
v -0.002186 0.023089 0.287188
v -0.018346 0.007326 0.254034
v -0.002186 0.013228 0.241610
v 0.135031 0.014821 0.270514
v 0.135031 0.025192 0.266894
v 0.130115 0.004088 0.257982
v 0.130115 0.025635 0.260247
v 0.104995 -0.005433 0.218009
v 0.104995 0.024678 0.228043
v 0.091953 0.001746 0.314191
v 0.123925 0.026539 0.286632
v 0.016605 0.013692 0.218009
v -0.007058 0.024739 0.292180
v 0.006117 0.021981 0.239039
v 0.024731 0.001746 0.314191
vn -0.6233 0.7791 -0.0666
vn 0.8034 0.1379 -0.5792
vn 0.8938 -0.0190 -0.4480
vn -0.7562 -0.1472 0.6375
vn 0.3182 -0.9313 0.1772
vn -0.9240 0.3438 -0.1673
vn 0.0209 0.9994 -0.0293
vn -0.1219 -0.9922 -0.0277
vn 0.7654 -0.1388 0.6284
vn 0.0097 0.6305 -0.7761
vn -0.6499 0.5668 -0.5063
vn 0.0720 -0.9871 -0.1431
vn -0.0224 0.9989 -0.0401
vn 0.0129 0.7199 0.6940
vt 0.375000 0.000000
vt 0.375000 1.000000
vt 0.125000 0.750000
vt 0.625000 0.000000
vt 0.625000 1.000000
vt 0.875000 0.750000
vt 0.375000 0.250000
vt 0.125000 0.500000
vt 0.875000 0.500000
vt 0.625000 0.250000
vt 0.375000 0.750000
vt 0.625000 0.750000
vt 0.375000 0.500000
vt 0.625000 0.500000
vt 0.375000 0.500000
vt 0.625000 0.500000
vt 0.375000 0.750000
vt 0.625000 0.750000
vt 0.375000 0.250000
vt 0.125000 0.500000
vt 0.875000 0.750000
vt 0.625000 1.000000
vt 0.625000 0.250000
vt 0.875000 0.500000
vt 0.125000 0.750000
vt 0.375000 1.000000
s 0
f 51/79/43 52/82/43 54/88/43 53/85/43
f 59/93/44 60/94/44 58/92/44 57/91/44
f 57/91/45 58/92/45 56/90/45 55/89/45
f 66/104/46 64/100/46 52/83/46 51/80/46
f 59/93/47 57/91/47 55/89/47 61/95/47
f 65/102/48 54/87/48 52/84/48 64/99/48
f 58/92/49 60/94/49 62/96/49 56/90/49
f 63/98/50 59/93/50 61/95/50 66/103/50
f 55/89/51 56/90/51 62/96/51 61/95/51
f 63/97/52 65/101/52 60/94/52 59/93/52
f 53/85/53 54/88/53 65/101/53 63/97/53
f 53/86/54 63/98/54 66/103/54 51/81/54
f 60/94/55 65/102/55 64/99/55 62/96/55
f 61/95/56 62/96/56 64/100/56 66/104/56
o Cube.005
v -0.200231 -0.003735 0.295916
v -0.195079 0.034589 0.258624
v -0.200231 0.014113 0.213423
v -0.195079 0.036874 0.251694
v -0.101216 0.016619 0.260993
v -0.045826 0.029751 0.259057
v -0.051770 0.014042 0.249788
v -0.051770 0.015681 0.249960
v -0.068226 0.003095 0.252816
v -0.076890 0.042037 0.218803
v -0.060520 0.002886 0.260917
v -0.044037 0.032155 0.259263
v -0.131974 0.004024 0.208769
v -0.188943 0.036714 0.299933
v -0.175768 0.039340 0.229799
v -0.189125 0.001746 0.304951
vn -0.9855 0.1657 0.0373
vn 0.3043 -0.5709 -0.7625
vn 0.1722 -0.5481 0.8185
vn -0.9305 0.2315 0.2837
vn 0.3909 0.4780 0.7865
vn -0.1984 0.9797 0.0285
vn 0.7881 -0.0226 -0.6151
vn 0.0011 -0.9997 -0.0233
vn -0.0134 -0.0617 -0.9980
vn 0.1994 -0.0304 -0.9794
vn -0.1692 0.6468 -0.7437
vn -0.0505 -0.9905 -0.1277
vn 0.0303 0.9938 0.1070
vn 0.2960 0.0224 0.9549
vt 0.375000 0.000000
vt 0.375000 1.000000
vt 0.125000 0.750000
vt 0.625000 0.000000
vt 0.625000 1.000000
vt 0.875000 0.750000
vt 0.375000 0.250000
vt 0.125000 0.500000
vt 0.875000 0.500000
vt 0.625000 0.250000
vt 0.375000 0.750000
vt 0.625000 0.750000
vt 0.375000 0.500000
vt 0.625000 0.500000
vt 0.375000 0.500000
vt 0.625000 0.500000
vt 0.375000 0.750000
vt 0.625000 0.750000
vt 0.375000 0.250000
vt 0.125000 0.500000
vt 0.875000 0.750000
vt 0.625000 1.000000
vt 0.625000 0.250000
vt 0.875000 0.500000
vt 0.125000 0.750000
vt 0.375000 1.000000
s 0
f 67/105/57 68/108/57 70/114/57 69/111/57
f 75/119/58 76/120/58 74/118/58 73/117/58
f 73/117/59 74/118/59 72/116/59 71/115/59
f 82/130/60 80/126/60 68/109/60 67/106/60
f 75/119/61 73/117/61 71/115/61 77/121/61
f 81/128/62 70/113/62 68/110/62 80/125/62
f 74/118/63 76/120/63 78/122/63 72/116/63
f 79/124/64 75/119/64 77/121/64 82/129/64
f 71/115/65 72/116/65 78/122/65 77/121/65
f 79/123/66 81/127/66 76/120/66 75/119/66
f 69/111/67 70/114/67 81/127/67 79/123/67
f 69/112/68 79/124/68 82/129/68 67/107/68
f 76/120/69 81/128/69 80/125/69 78/122/69
f 77/121/70 78/122/70 80/126/70 82/130/70
o Cube.006
v -0.243835 -0.005888 0.134511
v -0.251819 0.036418 0.136539
v -0.243835 0.011960 0.113660
v -0.254682 0.028648 0.112807
v -0.117834 0.012667 0.126455
v -0.117834 0.027944 0.125156
v -0.121872 -0.004511 0.121716
v -0.129032 0.029928 0.119780
v -0.142508 -0.007586 0.107617
v -0.135349 0.039884 0.116925
v -0.144897 -0.000407 0.155410
v -0.116595 0.031432 0.157124
v -0.215122 0.011539 0.107617
v -0.252379 0.036674 0.137102
v -0.235371 0.037186 0.116973
v -0.207378 -0.000407 0.146169
vn -0.9527 -0.3039 -0.0075
vn 0.5446 0.0752 -0.8353
vn 0.5373 0.0225 -0.8431
vn -0.3030 -0.1184 0.9456
vn 0.4000 -0.8362 0.3752
vn -0.3545 0.8973 -0.2628
vn 0.6208 0.7474 -0.2368
vn -0.1369 -0.9895 -0.0461
vn 0.8241 -0.4974 0.2710
vn 0.0236 0.2512 -0.9676
vn -0.0641 0.1511 -0.9864
vn 0.1079 -0.8829 -0.4569
vn -0.0018 0.9891 0.1470
vn -0.1438 0.0705 0.9871
vt 0.375000 0.000000
vt 0.375000 1.000000
vt 0.125000 0.750000
vt 0.625000 0.000000
vt 0.625000 1.000000
vt 0.875000 0.750000
vt 0.375000 0.250000
vt 0.125000 0.500000
vt 0.875000 0.500000
vt 0.625000 0.250000
vt 0.375000 0.750000
vt 0.625000 0.750000
vt 0.375000 0.500000
vt 0.625000 0.500000
vt 0.375000 0.500000
vt 0.625000 0.500000
vt 0.375000 0.750000
vt 0.625000 0.750000
vt 0.375000 0.250000
vt 0.125000 0.500000
vt 0.875000 0.750000
vt 0.625000 1.000000
vt 0.625000 0.250000
vt 0.875000 0.500000
vt 0.125000 0.750000
vt 0.375000 1.000000
s 0
f 83/131/71 84/134/71 86/140/71 85/137/71
f 91/145/72 92/146/72 90/144/72 89/143/72
f 89/143/73 90/144/73 88/142/73 87/141/73
f 98/156/74 96/152/74 84/135/74 83/132/74
f 91/145/75 89/143/75 87/141/75 93/147/75
f 97/154/76 86/139/76 84/136/76 96/151/76
f 90/144/77 92/146/77 94/148/77 88/142/77
f 95/150/78 91/145/78 93/147/78 98/155/78
f 87/141/79 88/142/79 94/148/79 93/147/79
f 95/149/80 97/153/80 92/146/80 91/145/80
f 85/137/81 86/140/81 97/153/81 95/149/81
f 85/138/82 95/150/82 98/155/82 83/133/82
f 92/146/83 97/154/83 96/151/83 94/148/83
f 93/147/84 94/148/84 96/152/84 98/156/84
o Cube.007
v -0.009993 -0.003735 0.035813
v -0.008355 0.037624 0.003801
v -0.009993 0.014113 -0.046680
v -0.008355 0.033840 -0.013687
v 0.090578 0.014821 0.001172
v 0.118986 0.030097 -0.002448
v 0.114070 -0.002358 -0.012038
v 0.114070 0.032081 -0.008418
v 0.029225 -0.005433 -0.032261
v 0.088950 0.042037 -0.035309
v 0.063651 0.001746 0.025776
v 0.107880 0.033608 0.017290
v 0.001120 0.013692 -0.051334
v -0.006404 0.036714 0.022838
v -0.002215 0.039340 -0.036294
v -0.006462 0.001746 0.044848
vn -0.9985 0.0534 0.0075
vn 0.3663 -0.2609 -0.8932
vn 0.5467 -0.3124 0.7769
vn -0.9758 0.1404 0.1677
vn 0.1479 -0.9425 0.2995
vn -0.5065 0.8613 -0.0407
vn 0.3436 0.9387 0.0270
vn -0.1911 -0.9816 0.0029
vn 0.5535 -0.7738 0.3079
vn 0.1699 0.0306 -0.9850
vn -0.7994 0.4224 -0.4273
vn 0.3602 -0.9225 -0.1385
vn 0.0042 0.9952 0.0979
vn 0.1301 0.3390 0.9318
vt 0.375000 0.000000
vt 0.375000 1.000000
vt 0.125000 0.750000
vt 0.625000 0.000000
vt 0.625000 1.000000
vt 0.875000 0.750000
vt 0.375000 0.250000
vt 0.125000 0.500000
vt 0.875000 0.500000
vt 0.625000 0.250000
vt 0.375000 0.750000
vt 0.625000 0.750000
vt 0.375000 0.500000
vt 0.625000 0.500000
vt 0.375000 0.500000
vt 0.625000 0.500000
vt 0.375000 0.750000
vt 0.625000 0.750000
vt 0.375000 0.250000
vt 0.125000 0.500000
vt 0.875000 0.750000
vt 0.625000 1.000000
vt 0.625000 0.250000
vt 0.875000 0.500000
vt 0.125000 0.750000
vt 0.375000 1.000000
s 0
f 99/157/85 100/160/85 102/166/85 101/163/85
f 107/171/86 108/172/86 106/170/86 105/169/86
f 105/169/87 106/170/87 104/168/87 103/167/87
f 114/182/88 112/178/88 100/161/88 99/158/88
f 107/171/89 105/169/89 103/167/89 109/173/89
f 113/180/90 102/165/90 100/162/90 112/177/90
f 106/170/91 108/172/91 110/174/91 104/168/91
f 111/176/92 107/171/92 109/173/92 114/181/92
f 103/167/93 104/168/93 110/174/93 109/173/93
f 111/175/94 113/179/94 108/172/94 107/171/94
f 101/163/95 102/166/95 113/179/95 111/175/95
f 101/164/96 111/176/96 114/181/96 99/159/96
f 108/172/97 113/180/97 112/177/97 110/174/97
f 109/173/98 110/174/98 112/178/98 114/182/98
