# Blender 3.5.1
# www.blender.org
mtllib Werkstück besser 3.mtl
o Cube.010
v -6.159654 2.083693 -0.973134
v -6.159654 2.543732 -0.973134
v -6.159654 2.083693 -1.089483
v -6.159654 2.543732 -1.089483
v -6.506093 2.083693 -0.973134
v -6.506093 2.543732 -0.973134
v -6.506093 2.083693 -1.089483
v -6.506093 2.543732 -1.089483
v -6.159654 2.248753 -0.973134
v -6.504776 2.248754 -1.089483
v -6.159654 2.248754 -1.089483
v -6.504776 2.248753 -0.973134
v -6.414799 2.543732 -0.973134
v -6.414799 2.083693 -1.089483
v -6.414799 2.543732 -1.089483
v -6.414799 2.083693 -0.973134
v -6.414799 2.248753 -0.973134
v -6.414799 2.248754 -1.089483
v -6.408200 2.543732 -1.089483
v -6.408200 2.083693 -0.973134
v -6.408200 2.248753 -0.973134
v -6.408200 2.543732 -0.973134
v -6.408200 2.083693 -1.089483
v -6.408200 2.248754 -1.089483
v -6.506093 2.243205 -1.089483
v -6.506093 2.243205 -0.973134
v -6.414799 2.243205 -0.973134
v -6.414799 2.243205 -1.089483
v -6.159654 2.251363 -0.973134
v -6.159654 2.251363 -1.089483
v -6.506093 2.251363 -0.973134
v -6.506093 2.251363 -1.089483
v -6.414799 2.251363 -1.089483
v -6.414799 2.251363 -0.973134
v -6.408200 2.251363 -1.089483
v -6.408200 2.251363 -0.973134
v -6.408200 2.543732 -1.089483
v -6.408200 2.083693 -0.973134
v -6.408200 2.248753 -0.973134
v -6.408200 2.543732 -0.973134
v -6.408200 2.083693 -1.089483
v -6.408200 2.248754 -1.089483
v -6.408200 2.251363 -1.089483
v -6.408200 2.251363 -0.973134
v -6.414799 2.543732 -0.973134
v -6.414799 2.083693 -1.089483
v -6.414799 2.248754 -1.089483
v -6.414799 2.543732 -1.089483
v -6.414799 2.083693 -0.973134
v -6.414799 2.248753 -0.973134
v -6.414799 2.243205 -0.973134
v -6.414799 2.243205 -1.089483
v -6.414799 2.251363 -0.973134
v -6.414799 2.251363 -1.089483
v -6.408331 2.083174 -0.973202
v -6.408331 2.248235 -0.973202
v -6.414799 2.083693 -1.089332
v -6.414799 2.243205 -1.089332
v -6.415176 2.248754 -1.089483
v -6.415307 2.248235 -0.973202
vn -0.0000 -1.0000 -0.0000
vn -0.0000 -0.0000 -1.0000
vn -1.0000 -0.0000 -0.0000
vn -0.0000 1.0000 -0.0000
vn 1.0000 -0.0000 -0.0000
vn -0.0000 -0.0000 1.0000
vn -0.8928 -0.4504 -0.0000
vn -0.9730 0.2308 -0.0000
vn -1.0000 -0.0000 -0.0011
vn -0.0000 -1.0000 -0.0045
vt 0.625000 0.500000
vt 0.375000 0.500000
vt 0.625000 0.750000
vt 0.375000 0.750000
vt 0.875000 0.500000
vt 0.625000 0.250000
vt 0.375000 0.250000
vt 0.125000 0.500000
vt 0.875000 0.750000
vt 0.625000 1.000000
vt 0.625000 0.000000
vt 0.375000 1.000000
vt 0.375000 0.000000
vt 0.125000 0.750000
vt 0.535301 0.500000
vt 0.535301 0.000000
vt 0.535301 1.000000
vt 0.535301 0.750000
vt 0.535301 0.250000
vt 0.190880 0.500000
vt 0.375000 0.315880
vt 0.625000 0.934120
vt 0.809120 0.750000
vt 0.190880 0.750000
vt 0.375000 0.934120
vt 0.809120 0.500000
vt 0.625000 0.315880
vt 0.535301 0.315880
vt 0.535301 0.934120
vt 0.375000 0.929358
vt 0.195642 0.750000
vt 0.804358 0.500000
vt 0.625000 0.320642
vt 0.535301 0.320642
vt 0.375000 0.320642
vt 0.195642 0.500000
vt 0.804358 0.750000
vt 0.625000 0.929358
vt 0.535301 0.929358
vt 0.538316 0.000000
vt 0.538316 1.000000
vt 0.538316 0.250000
vt 0.538316 0.315880
vt 0.538316 0.934120
vt 0.533883 0.500000
vt 0.533883 0.750000
vt 0.533883 0.250000
vt 0.533883 1.000000
vt 0.533883 0.000000
vt 0.533883 0.934120
vt 0.533883 0.315880
vt 0.533883 0.929358
vt 0.533883 0.320642
vt 0.375000 0.929358
vt 0.195642 0.750000
vt 0.804358 0.500000
vt 0.625000 0.320642
vt 0.535301 0.320642
vt 0.375000 0.320642
vt 0.195642 0.500000
vt 0.625000 0.929358
vt 0.804358 0.750000
vt 0.535301 0.929358
vt 0.533883 0.929358
vt 0.533883 0.320642
vt 0.375000 0.315880
vt 0.190880 0.500000
vt 0.625000 0.934120
vt 0.809120 0.750000
vt 0.535301 0.934120
vt 0.375000 0.934120
vt 0.190880 0.750000
vt 0.625000 0.315880
vt 0.809120 0.500000
vt 0.535301 0.315880
vt 0.538316 0.315880
vt 0.538316 0.934120
vt 0.533883 0.315880
vt 0.533883 0.934120
vt 0.625000 0.929358
vt 0.535301 0.929358
vt 0.625000 0.315880
vt 0.538316 0.315880
vt 0.535301 0.929358
vt 0.535301 0.929358
s 0
usemtl Material.006
f 49/74/1 5/5/1 7/9/1 46/69/1
f 52/77/2 46/68/2 7/10/2 25/41/2
f 25/40/3 7/11/3 5/6/3 26/42/3
f 40/60/4 2/2/4 4/4/4 37/55/4
f 9/15/5 1/1/5 3/3/5 11/18/5
f 39/58/6 38/57/6 1/1/6 9/15/6
f 44/65/6 39/58/6 9/15/6 29/45/6
f 29/45/5 9/15/5 11/18/5 30/46/5
f 32/49/7 10/16/7 12/19/7 31/47/7
f 54/79/2 47/70/2 10/17/2 32/48/2
f 35/52/2 24/39/2 18/29/2 33/50/2
f 53/78/1 50/75/1 17/28/1 34/51/1
f 51/76/1 49/73/1 16/27/1 27/43/1
f 45/67/1 13/20/1 15/24/1 48/72/1
f 38/56/1 20/32/1 23/37/1 41/62/1
f 42/63/1 41/61/1 23/38/1 24/39/1
f 43/64/1 42/63/1 24/39/1 35/52/1
f 34/51/6 17/28/6 21/34/6 36/53/6
f 13/20/4 22/36/4 19/31/4 15/24/4
f 50/75/1 51/76/1 27/43/1 17/28/1
f 10/16/8 25/40/8 26/42/8 12/19/8
f 47/70/2 52/77/2 25/41/2 10/17/2
f 13/21/6 34/51/6 36/53/6 22/35/6
f 37/54/1 43/64/1 35/52/1 19/30/1
f 45/66/1 53/78/1 34/51/1 13/21/1
f 19/30/2 35/52/2 33/50/2 15/25/2
f 48/71/2 54/79/2 32/48/2 8/12/2
f 8/13/3 32/49/3 31/47/3 6/7/3
f 2/2/5 29/45/5 30/46/5 4/4/5
f 40/59/6 44/65/6 29/45/6 2/2/6
f 22/35/1 36/53/1 44/65/1 40/59/1
f 4/4/2 30/46/2 43/64/2 37/54/2
f 30/46/2 11/18/2 42/63/2 43/64/2
f 11/18/2 3/3/2 41/61/2 42/63/2
f 1/1/1 38/56/1 41/62/1 3/3/1
f 36/53/1 21/34/1 39/58/1 44/65/1
f 21/34/1 20/33/1 38/57/1 39/58/1
f 22/36/1 40/60/1 37/55/1 19/31/1
f 15/25/1 33/50/1 54/79/1 48/71/1
f 6/7/6 31/47/6 53/78/6 45/66/6
f 18/29/1 28/44/1 52/77/1 47/70/1
f 12/19/6 26/42/6 51/76/6 50/75/6
f 6/8/4 45/67/4 48/72/4 8/14/4
f 26/42/6 5/6/6 49/73/6 51/76/6
f 31/47/6 12/19/6 50/75/6 53/78/6
f 33/50/1 18/29/1 47/70/1 54/79/1
f 28/44/1 14/22/1 46/68/1 52/77/1
f 16/26/1 49/74/1 46/69/1 14/23/1
f 24/39/9 23/38/9 55/80/9 56/81/9
f 27/43/5 16/27/5 57/82/5 58/83/5
f 24/39/10 56/81/10 60/85/10 59/84/10
