# Blender 3.5.1
# www.blender.org
mtllib Werkstück besser 2.mtl
o Cube.009
v -5.672814 2.102802 -0.909966
v -5.672814 2.562841 -0.909966
v -5.672814 2.102802 -1.026315
v -5.672814 2.562841 -1.026315
v -6.019252 2.102802 -0.909966
v -6.019252 2.562841 -0.909966
v -6.019252 2.102802 -1.026315
v -6.019252 2.562841 -1.026315
v -5.672814 2.267862 -0.909966
v -6.019252 2.267862 -1.026315
v -5.672814 2.267862 -1.026315
v -6.019252 2.267862 -0.909966
v -5.927959 2.562841 -0.909966
v -5.927959 2.102802 -1.026315
v -5.927959 2.562841 -1.026315
v -5.927959 2.102802 -0.909966
v -5.927959 2.267862 -0.909966
v -5.927959 2.267862 -1.026315
v -5.921360 2.562841 -1.026315
v -5.921360 2.102802 -0.909966
v -5.921360 2.267862 -0.909966
v -5.921360 2.562841 -0.909966
v -5.921360 2.102802 -1.026315
v -5.921360 2.267862 -1.026315
v -6.019252 2.262314 -1.026315
v -6.019252 2.262314 -0.909966
v -5.927959 2.262314 -0.909966
v -5.927959 2.262314 -1.026315
v -5.927959 2.268485 -1.026315
v -5.927959 2.268485 -0.909966
v -5.921360 2.267402 -0.909966
v -5.921360 2.267402 -1.026315
v -5.919883 2.268485 -1.026315
v -5.919883 2.268485 -0.909966
vn -0.0000 -1.0000 -0.0000
vn -0.0000 -0.0000 -1.0000
vn -1.0000 -0.0000 -0.0000
vn -0.0000 1.0000 -0.0000
vn 1.0000 -0.0000 -0.0000
vn -0.0000 -0.0000 1.0000
vt 0.625000 0.500000
vt 0.375000 0.500000
vt 0.625000 0.750000
vt 0.375000 0.750000
vt 0.875000 0.500000
vt 0.625000 0.250000
vt 0.375000 0.250000
vt 0.125000 0.500000
vt 0.875000 0.750000
vt 0.625000 1.000000
vt 0.625000 0.000000
vt 0.375000 0.000000
vt 0.375000 1.000000
vt 0.125000 0.750000
vt 0.535301 0.500000
vt 0.535301 0.000000
vt 0.535301 1.000000
vt 0.535301 0.750000
vt 0.535301 0.250000
vt 0.375000 0.315880
vt 0.190880 0.500000
vt 0.625000 0.934120
vt 0.809120 0.750000
vt 0.375000 0.934120
vt 0.190880 0.750000
vt 0.625000 0.315880
vt 0.809120 0.500000
vt 0.535301 0.315880
vt 0.535301 0.934120
vt 0.375000 0.929358
vt 0.195642 0.750000
vt 0.625000 0.320642
vt 0.804358 0.500000
vt 0.535301 0.320642
vt 0.375000 0.320642
vt 0.195642 0.500000
vt 0.625000 0.929358
vt 0.804358 0.750000
vt 0.535301 0.929358
vt 0.538316 0.000000
vt 0.538316 1.000000
vt 0.538316 0.250000
vt 0.538316 0.315880
vt 0.538316 0.934120
vt 0.809120 0.750000
vt 0.809120 0.500000
vt 0.804358 0.500000
vt 0.804358 0.750000
vt 0.809120 0.750000
vt 0.809120 0.500000
s 0
usemtl Material.006
f 16/27/1 5/5/1 7/9/1 14/23/1
f 28/44/2 14/22/2 7/10/2 25/41/2
f 25/40/3 7/11/3 5/6/3 26/42/3
f 22/36/4 2/2/4 4/4/4 19/31/4
f 9/15/5 1/1/5 3/3/5 11/18/5
f 21/34/6 20/32/6 1/1/6 9/15/6
f 22/35/6 21/34/6 9/15/6 2/2/6
f 2/2/5 9/15/5 11/18/5 4/4/5
f 8/12/3 10/16/3 12/19/3 6/7/3
f 15/24/2 18/29/2 10/17/2 8/13/2
f 19/30/2 24/39/2 18/29/2 15/24/2
f 6/7/6 12/19/6 17/28/6 13/20/6
f 26/42/6 5/6/6 16/26/6 27/43/6
f 6/8/4 13/21/4 15/25/4 8/14/4
f 1/1/1 20/33/1 23/38/1 3/3/1
f 11/18/2 3/3/2 23/37/2 24/39/2
f 4/4/2 11/18/2 24/39/2 19/30/2
f 13/20/6 17/28/6 21/34/6 22/35/6
f 13/21/4 22/36/4 19/31/4 15/25/4
f 12/19/6 26/42/6 27/43/6 17/28/6
f 10/16/3 25/40/3 26/42/3 12/19/3
f 18/29/2 28/44/2 25/41/2 10/17/2
f 16/27/5 14/23/5 29/45/5 30/46/5
f 23/38/3 20/33/3 31/47/3 32/48/3
f 30/46/1 29/45/1 33/49/1 34/50/1
