# Blender 3.5.1
# www.blender.org
mtllib Werkstück besser 4.mtl
o Cube.001
v -6.806909 2.163299 -1.115059
v -6.806909 2.623339 -1.115058
v -6.806909 2.163299 -1.242341
v -6.806909 2.623339 -1.242341
v -7.153347 2.623339 -1.115058
v -7.153347 2.623339 -1.242341
v -6.806909 2.328360 -1.115059
v -7.153347 2.328360 -1.242341
v -6.806909 2.328360 -1.242341
v -7.153347 2.328360 -1.115059
v -7.062054 2.623339 -1.115058
v -7.062054 2.623339 -1.242341
v -7.054897 2.330048 -1.115059
v -7.062054 2.328360 -1.242341
v -7.055455 2.623339 -1.242341
v -7.054306 2.163572 -1.115059
v -7.055455 2.328360 -1.115059
v -7.055455 2.623339 -1.115058
v -7.052959 2.163572 -1.242341
v -7.054109 2.328360 -1.242341
v -7.153347 2.163299 -1.115059
v -7.153347 2.163299 -1.242341
v -7.062054 2.163299 -1.242341
v -7.062054 2.163299 -1.115059
v -7.153347 2.322812 -1.242341
v -7.153347 2.322812 -1.115059
v -7.062054 2.322812 -1.115059
v -7.062054 2.322812 -1.242341
v -7.153347 2.328360 -1.241564
v -7.054897 2.330048 -1.241564
v -7.054897 2.162910 -1.115059
v -7.053850 2.162910 -1.241565
v -6.806909 2.163299 -1.242341
v -7.055455 2.163299 -1.242341
v -7.115493 2.623339 -1.115058
v -7.115493 2.328360 -1.242341
v -7.115493 2.623339 -1.242341
v -7.112366 2.328526 -1.115058
v -7.112366 2.328526 -1.241564
v -7.088774 2.623339 -1.242341
v -7.083711 2.328917 -1.115059
v -7.083711 2.328917 -1.241564
v -7.088774 2.623339 -1.115058
v -7.088774 2.328360 -1.242341
v -7.134420 2.623339 -1.115058
v -7.134420 2.328360 -1.242341
v -7.134420 2.623339 -1.242341
v -7.134714 2.328614 -1.115058
v -7.134714 2.328615 -1.241564
v -7.124957 2.623339 -1.242341
v -7.122731 2.328398 -1.115059
v -7.122731 2.328398 -1.241565
v -7.124957 2.623339 -1.115058
v -7.124957 2.328360 -1.242341
v -7.153347 2.366683 -1.241564
v -7.112526 2.364734 -1.241564
v -7.083711 2.367878 -1.241564
v -7.132936 2.363586 -1.241564
v -7.122731 2.366721 -1.241564
v -7.075665 2.623339 -1.242341
v -7.069790 2.328840 -1.115058
v -7.069790 2.328840 -1.241564
v -7.075665 2.623339 -1.115058
v -7.075665 2.328360 -1.242341
v -7.054245 2.303966 -1.115058
v -7.054245 2.303966 -1.241564
v -7.053117 2.252191 -1.241565
v -7.054897 2.252191 -1.115059
v -7.050550 2.207426 -1.241564
v -7.053377 2.207426 -1.115058
v -7.054904 2.302140 -1.115059
v -7.054904 2.302140 -1.241564
v -7.045112 2.330048 -1.241564
v -7.047180 2.302140 -1.241564
v -7.042301 2.302140 -1.241564
v -7.040233 2.252191 -1.241565
v -7.055298 2.331702 -1.241565
v -7.069976 2.328189 -1.241565
v -7.054897 2.332958 -1.241564
v -7.069575 2.329444 -1.241564
v -7.055455 2.163299 -1.115059
v -7.055455 2.328360 -1.115059
v -7.053684 2.330048 -1.115059
v -7.055751 2.302140 -1.115059
v -7.055294 2.302140 -1.115059
v -7.053226 2.252191 -1.115059
vn -0.0000 1.0000 -0.0000
vn 1.0000 -0.0000 -0.0000
vn -0.0000 -0.0000 1.0000
vn -1.0000 -0.0000 -0.0000
vn -0.0000 -0.0000 -1.0000
vn -0.0011 -1.0000 -0.0000
vn 0.0137 -0.9999 -0.0000
vn -0.9984 0.0541 -0.0153
vn -0.0000 -0.0002 -1.0000
vn -0.0055 -1.0000 -0.0000
vn -0.0181 -0.9998 -0.0000
vn 0.0123 -0.9999 -0.0000
vn 0.0808 -0.9967 -0.0000
vn -0.9997 -0.0250 -0.0000
vn -1.0000 -0.0046 -0.0070
vn -0.9988 -0.0456 -0.0182
vn 0.9407 -0.3392 -0.0000
vn 0.0001 -0.0004 -1.0000
vn -0.0000 0.0001 -1.0000
vn 0.0003 -0.0000 -1.0000
vn 0.0001 -0.0000 1.0000
vt 0.625000 0.500000
vt 0.375000 0.500000
vt 0.625000 0.750000
vt 0.375000 0.750000
vt 0.375000 0.250000
vt 0.125000 0.500000
vt 0.375000 0.000000
vt 0.375000 1.000000
vt 0.125000 0.750000
vt 0.535301 0.500000
vt 0.535301 0.000000
vt 0.535301 1.000000
vt 0.535301 0.750000
vt 0.535301 0.250000
vt 0.375000 0.315880
vt 0.190880 0.500000
vt 0.190880 0.750000
vt 0.375000 0.934120
vt 0.535301 0.315880
vt 0.535301 0.934120
vt 0.375000 0.929358
vt 0.195642 0.750000
vt 0.804358 0.500000
vt 0.625000 0.320642
vt 0.535301 0.320642
vt 0.375000 0.320642
vt 0.195642 0.500000
vt 0.625000 0.929358
vt 0.804358 0.750000
vt 0.535301 0.929358
vt 0.535301 0.250000
vt 0.535301 0.315880
vt 0.535301 0.315880
vt 0.535301 0.315880
vt 0.625000 0.750000
vt 0.804358 0.750000
vt 0.152317 0.500000
vt 0.375000 0.277317
vt 0.535301 0.972683
vt 0.152317 0.750000
vt 0.375000 0.972683
vt 0.535301 0.277317
vt 0.535301 0.277317
vt 0.375000 0.953402
vt 0.171598 0.750000
vt 0.535301 0.296598
vt 0.535301 0.296598
vt 0.171598 0.500000
vt 0.375000 0.296598
vt 0.535301 0.953402
vt 0.375000 0.263658
vt 0.138658 0.500000
vt 0.535301 0.986342
vt 0.375000 0.986342
vt 0.138658 0.750000
vt 0.535301 0.263658
vt 0.535301 0.263658
vt 0.375000 0.979513
vt 0.145487 0.750000
vt 0.535301 0.270487
vt 0.535301 0.270487
vt 0.375000 0.270487
vt 0.145487 0.500000
vt 0.535301 0.979513
vt 0.535301 0.250000
vt 0.535301 0.277317
vt 0.535301 0.296598
vt 0.535301 0.263658
vt 0.535301 0.270487
vt 0.375000 0.943942
vt 0.181058 0.750000
vt 0.535301 0.306058
vt 0.535301 0.306058
vt 0.181058 0.500000
vt 0.375000 0.306058
vt 0.535301 0.943942
vt 0.535301 0.315880
vt 0.535301 0.315880
vt 0.535301 0.315880
vt 0.535301 0.315880
vt 0.535301 0.315880
vt 0.535301 0.315880
vt 0.535301 0.315880
vt 0.535301 0.315880
vt 0.535301 0.315880
vt 0.535301 0.315880
vt 0.535301 0.315880
vt 0.535301 0.315880
vt 0.535301 0.315880
vt 0.535301 0.306058
vt 0.535301 0.315880
vt 0.535301 0.306058
vt 0.625000 0.320642
vt 0.535301 0.320642
vt 0.535301 0.315880
vt 0.535301 0.315880
vt 0.535301 0.315880
vt 0.535301 0.315880
s 0
usemtl Material.002
f 18/27/1 2/2/1 4/4/1 15/22/1
f 7/10/2 1/1/2 3/3/2 9/13/2
f 17/25/3 16/24/3 1/1/3 7/10/3
f 18/26/3 17/25/3 7/10/3 2/2/3
f 2/2/2 7/10/2 9/13/2 4/4/2
f 6/7/4 8/11/4 10/14/4 5/5/4
f 47/54/5 46/53/5 8/12/5 6/8/5
f 15/21/5 20/30/5 14/20/5 12/18/5
f 63/75/3 61/72/3 13/19/3 11/15/3
f 63/74/1 11/16/1 12/17/1 60/71/1
f 1/1/6 16/23/6 19/29/6 3/3/6
f 9/13/5 3/3/5 19/28/5 20/30/5
f 4/4/5 9/13/5 20/30/5 15/21/5
f 11/15/3 13/19/3 17/25/3 18/26/3
f 11/16/1 18/27/1 15/22/1 12/17/1
f 48/56/7 10/14/7 29/31/7 49/57/7
f 70/82/8 69/81/8 32/34/8 31/33/8
f 19/29/9 3/3/9 33/35/9 34/36/9
f 41/46/7 38/42/7 39/43/7 42/47/7
f 53/63/1 35/37/1 37/40/1 50/59/1
f 53/62/3 51/60/3 38/42/3 35/38/3
f 40/44/5 44/50/5 36/39/5 37/41/5
f 60/70/5 64/76/5 44/50/5 40/44/5
f 61/72/10 41/46/10 42/47/10 62/73/10
f 35/37/1 43/48/1 40/45/1 37/40/1
f 35/38/3 38/42/3 41/46/3 43/49/3
f 5/5/3 10/14/3 48/56/3 45/51/3
f 5/6/1 45/52/1 47/55/1 6/9/1
f 51/60/11 48/56/11 49/57/11 52/61/11
f 50/58/5 54/64/5 46/53/5 47/54/5
f 37/41/5 36/39/5 54/64/5 50/58/5
f 38/42/12 51/60/12 52/61/12 39/43/12
f 45/51/3 48/56/3 51/60/3 53/62/3
f 45/52/1 53/63/1 50/59/1 47/55/1
f 39/43/5 52/61/5 59/69/5 56/66/5
f 42/47/5 39/43/5 56/66/5 57/67/5
f 49/57/5 29/31/5 55/65/5 58/68/5
f 52/61/5 49/57/5 58/68/5 59/69/5
f 13/19/13 61/72/13 62/73/13 30/32/13
f 12/18/5 14/20/5 64/76/5 60/70/5
f 43/48/1 63/74/1 60/71/1 40/45/1
f 43/49/3 41/46/3 61/72/3 63/75/3
f 13/19/14 30/32/14 66/78/14 65/77/14
f 65/77/15 66/78/15 67/79/15 68/80/15
f 68/80/16 67/79/16 69/81/16 70/82/16
f 66/78/17 65/77/17 71/83/17 72/84/17
f 66/78/5 30/32/5 73/85/5 74/86/5
f 67/79/5 66/78/5 75/87/5 76/88/5
f 30/32/18 62/73/18 78/90/18 77/89/18
f 77/89/19 78/90/19 80/92/19 79/91/19
f 16/24/3 17/25/3 82/94/3 81/93/3
f 13/19/20 65/77/20 84/96/20 83/95/20
f 65/77/21 68/80/21 86/98/21 85/97/21
